<?xml version="1.0" encoding="UTF-8" standalone="no"?> <svg xmlns="http://www.w3.org/2000/svg" viewBox="0 0 64 64"><g id="Layer_63" data-name="Layer 63"><path d="M57,19.47A27.62,27.62,0,0,0,21.48,8.32l1.42-4A1,1,0,0,0,21,3.67l-2.26,6.38a.06.06,0,0,1,0,0,.65.65,0,0,0,0,.2,1.1,1.1,0,0,0,0,.18,1.21,1.21,0,0,0,.05.18.94.94,0,0,0,0,.16l0,0a.08.08,0,0,0,0,0s.07.07.1.11a.93.93,0,0,0,.13.15l.17.1c.05,0,.08.06.13.08l6.38,2.26a1,1,0,0,0,.34.06,1,1,0,0,0,.33-2l-4.23-1.49A25.62,25.62,0,0,1,55.23,20.48a25.65,25.65,0,0,1-2.95,29.87l-1-3.42a8.4,8.4,0,0,0-8.1-5.7H37.82V38.89a9.26,9.26,0,0,0,1.52-1.08h5.91a2.69,2.69,0,0,0,2.69-2.69v-5.7a14.85,14.85,0,0,0-15-14.84,15.09,15.09,0,0,0-14.66,15.2v5.34a2.7,2.7,0,0,0,2.69,2.69h5.9a9.68,9.68,0,0,0,1.54,1.08v2.34H23.05A8.38,8.38,0,0,0,15,46.93l-1.05,3.43A25.06,25.06,0,0,1,11,46.28,25.61,25.61,0,0,1,8.89,25,1,1,0,1,0,7,24.34a27.62,27.62,0,1,0,50-4.87ZM29.79,37.38l0,0A6.8,6.8,0,0,1,28,36.18l-.08-.08h0a6.21,6.21,0,0,1-2-4.51V27.34a7.65,7.65,0,0,0,5.68-2.83c2,1.69,5.52,2.66,8.62,2.84v4.24c0,3.6-3.21,6.53-7.15,6.53A7.68,7.68,0,0,1,29.79,37.38ZM42.25,28.9h.16a.83.83,0,0,1,.83.83v.43a.84.84,0,0,1-.83.84h-.16Zm-22,6.22V29.78a13.08,13.08,0,0,1,12.68-13.2,12.56,12.56,0,0,1,9.25,3.76,12.74,12.74,0,0,1,3.76,9.08v5.7a.69.69,0,0,1-.69.69H41A8.07,8.07,0,0,0,42.11,33h.3a2.84,2.84,0,0,0,2.83-2.84v-.43a2.83,2.83,0,0,0-2.83-2.83h-.16v-.37s0-.05,0-.07,0-.05,0-.08a1,1,0,0,0-1-1c-3.47,0-7.22-1.19-8.63-2.67a7.35,7.35,0,0,0,.47-2.62,1,1,0,0,0-2,0c0,3.27-2.35,5.29-6.14,5.29a1,1,0,0,0-1,1v.52h-.16A2.84,2.84,0,0,0,21,29.73v.43A2.84,2.84,0,0,0,23.79,33h.29a8.22,8.22,0,0,0,1.07,2.81H20.94A.69.69,0,0,1,20.25,35.12ZM24,31h-.16a.85.85,0,0,1-.84-.84v-.43a.84.84,0,0,1,.84-.83H24Zm9.15,9.12a9.72,9.72,0,0,0,2.72-.38v2.49a1,1,0,0,0,.08.39,1,1,0,0,0,.92.61h.07l-1.15,1a4.18,4.18,0,0,1-2.64.94h0a4.18,4.18,0,0,1-2.63-.94l-1.15-1h.07a1,1,0,0,0,1-1h0V39.74A9.82,9.82,0,0,0,33.1,40.12ZM46,55.51A25.65,25.65,0,0,1,15.5,52l1.38-4.5a6.36,6.36,0,0,1,6.17-4.28h3.1l3,2.49A6.1,6.1,0,0,0,32.1,47v7.39a1,1,0,0,0,2,0V47A6.1,6.1,0,0,0,37,45.72l3-2.49h3.09a6.37,6.37,0,0,1,6.18,4.28L50.69,52A25.44,25.44,0,0,1,46,55.51Z"/><path d="M11.24,22.46a.84.84,0,0,0,.23-.59.75.75,0,0,0-.29-.61,1.39,1.39,0,0,0-.83-.22H6.69A3.75,3.75,0,0,1,7,20.59a10.92,10.92,0,0,1,1.45-1.34c.7-.58,1.2-1,1.5-1.27a5.06,5.06,0,0,0,.88-1.11,3.05,3.05,0,0,0,.23-2.65A2.78,2.78,0,0,0,9.65,12.7a4.43,4.43,0,0,0-1.83-.34,4.26,4.26,0,0,0-1.55.26,3.34,3.34,0,0,0-1.1.69,3.15,3.15,0,0,0-.65.95,2.77,2.77,0,0,0-.21,1,.82.82,0,0,0,.23.63.77.77,0,0,0,.58.24.74.74,0,0,0,.61-.26,2.51,2.51,0,0,0,.37-.72,4.6,4.6,0,0,1,.23-.57,1.64,1.64,0,0,1,1.45-.81,1.69,1.69,0,0,1,.8.2,1.46,1.46,0,0,1,.58.55,1.52,1.52,0,0,1,.21.8,1.85,1.85,0,0,1-.2.84,3,3,0,0,1-.58.84,5.67,5.67,0,0,1-1,.82,11.18,11.18,0,0,0-1.08.91c-.5.46-1.06,1-1.68,1.66a2.08,2.08,0,0,0-.41.65,1.68,1.68,0,0,0-.19.67.94.94,0,0,0,.29.68,1.1,1.1,0,0,0,.82.29h5.16A.94.94,0,0,0,11.24,22.46Z"/><path d="M13.52,20.5H17v1.3a1.18,1.18,0,0,0,.24.8.8.8,0,0,0,.63.27.84.84,0,0,0,.64-.26,1.19,1.19,0,0,0,.24-.81V20.5h.43a1.46,1.46,0,0,0,.8-.18.71.71,0,0,0,.26-.6.63.63,0,0,0-.32-.64,2.12,2.12,0,0,0-.87-.15h-.3V13.51c0-.81-.35-1.22-1.06-1.22a.8.8,0,0,0-.57.22,5.12,5.12,0,0,0-.6.71l-3.71,5-.26.34c-.07.1-.14.19-.2.29a1.15,1.15,0,0,0-.15.29.86.86,0,0,0-.05.27,1,1,0,0,0,.33.82A1.46,1.46,0,0,0,13.52,20.5ZM17,14.86v4.07H14Z"/></g></svg>